<mxfile host="app.diagrams.net" modified="2024-01-09T14:40:00.350Z" agent="Mozilla/5.0 (Windows NT 10.0; Win64; x64) AppleWebKit/537.36 (KHTML, like Gecko) Chrome/120.0.0.0 Safari/537.36" etag="dmdnSFm0ODKtl5IW23Ce" version="22.1.17" type="github">
  <diagram name="페이지-1" id="GTFN8AmOYNpyvxLc8xMg">
    <mxGraphModel dx="2261" dy="738" grid="1" gridSize="10" guides="1" tooltips="1" connect="1" arrows="1" fold="1" page="1" pageScale="1" pageWidth="827" pageHeight="1169" math="0" shadow="0">
      <root>
        <mxCell id="0" />
        <mxCell id="1" parent="0" />
        <mxCell id="H7JjW7gKEQ4J_BTl-3o7-68" value="" style="rounded=0;whiteSpace=wrap;html=1;" vertex="1" parent="1">
          <mxGeometry x="-350" y="195" width="300" height="185" as="geometry" />
        </mxCell>
        <mxCell id="H7JjW7gKEQ4J_BTl-3o7-14" value="&lt;b&gt;INTERNAL&lt;br&gt;STORAGE&lt;/b&gt;" style="shape=datastore;whiteSpace=wrap;html=1;fillColor=#f5f5f5;fontColor=#333333;strokeColor=#666666;" vertex="1" parent="1">
          <mxGeometry x="540" y="87" width="80" height="90" as="geometry" />
        </mxCell>
        <mxCell id="H7JjW7gKEQ4J_BTl-3o7-40" value="" style="edgeStyle=orthogonalEdgeStyle;rounded=0;orthogonalLoop=1;jettySize=auto;html=1;" edge="1" parent="1" source="H7JjW7gKEQ4J_BTl-3o7-17" target="H7JjW7gKEQ4J_BTl-3o7-22">
          <mxGeometry relative="1" as="geometry" />
        </mxCell>
        <mxCell id="H7JjW7gKEQ4J_BTl-3o7-17" value="&lt;b&gt;Syncope Core&lt;/b&gt;" style="shape=cube;whiteSpace=wrap;html=1;boundedLbl=1;backgroundOutline=1;darkOpacity=0.05;darkOpacity2=0.1;fillColor=#d5e8d4;strokeColor=#82b366;size=8;" vertex="1" parent="1">
          <mxGeometry x="222.5" y="48" width="130" height="40" as="geometry" />
        </mxCell>
        <mxCell id="H7JjW7gKEQ4J_BTl-3o7-23" value="&lt;b&gt;ConnectorObject&lt;/b&gt;" style="swimlane;fontStyle=0;childLayout=stackLayout;horizontal=1;startSize=30;horizontalStack=0;resizeParent=1;resizeParentMax=0;resizeLast=0;collapsible=1;marginBottom=0;whiteSpace=wrap;html=1;fillColor=#d5e8d4;strokeColor=#82b366;" vertex="1" parent="1">
          <mxGeometry x="510" y="350" width="140" height="120" as="geometry">
            <mxRectangle x="680" y="190" width="140" height="30" as="alternateBounds" />
          </mxGeometry>
        </mxCell>
        <mxCell id="H7JjW7gKEQ4J_BTl-3o7-24" value="USER" style="text;strokeColor=none;fillColor=none;align=center;verticalAlign=middle;spacingLeft=4;spacingRight=4;overflow=hidden;points=[[0,0.5],[1,0.5]];portConstraint=eastwest;rotatable=0;whiteSpace=wrap;html=1;" vertex="1" parent="H7JjW7gKEQ4J_BTl-3o7-23">
          <mxGeometry y="30" width="140" height="30" as="geometry" />
        </mxCell>
        <mxCell id="H7JjW7gKEQ4J_BTl-3o7-25" value="GROUP" style="text;strokeColor=none;fillColor=none;align=center;verticalAlign=middle;spacingLeft=4;spacingRight=4;overflow=hidden;points=[[0,0.5],[1,0.5]];portConstraint=eastwest;rotatable=0;whiteSpace=wrap;html=1;" vertex="1" parent="H7JjW7gKEQ4J_BTl-3o7-23">
          <mxGeometry y="60" width="140" height="30" as="geometry" />
        </mxCell>
        <mxCell id="H7JjW7gKEQ4J_BTl-3o7-26" value="DEVICE" style="text;strokeColor=none;fillColor=none;align=center;verticalAlign=middle;spacingLeft=4;spacingRight=4;overflow=hidden;points=[[0,0.5],[1,0.5]];portConstraint=eastwest;rotatable=0;whiteSpace=wrap;html=1;" vertex="1" parent="H7JjW7gKEQ4J_BTl-3o7-23">
          <mxGeometry y="90" width="140" height="30" as="geometry" />
        </mxCell>
        <mxCell id="H7JjW7gKEQ4J_BTl-3o7-28" value="" style="group" vertex="1" connectable="0" parent="1">
          <mxGeometry x="170" y="179" width="235" height="278.5" as="geometry" />
        </mxCell>
        <mxCell id="H7JjW7gKEQ4J_BTl-3o7-21" value="" style="rounded=0;whiteSpace=wrap;html=1;movable=1;resizable=1;rotatable=1;deletable=1;editable=1;locked=0;connectable=1;" vertex="1" parent="H7JjW7gKEQ4J_BTl-3o7-28">
          <mxGeometry y="13.5" width="235" height="265" as="geometry" />
        </mxCell>
        <mxCell id="H7JjW7gKEQ4J_BTl-3o7-5" value="&lt;b&gt;Connector&lt;/b&gt;" style="swimlane;fontStyle=0;childLayout=stackLayout;horizontal=1;startSize=30;horizontalStack=0;resizeParent=1;resizeParentMax=0;resizeLast=0;collapsible=1;marginBottom=0;whiteSpace=wrap;html=1;movable=1;resizable=1;rotatable=1;deletable=1;editable=1;locked=0;connectable=1;" vertex="1" parent="H7JjW7gKEQ4J_BTl-3o7-28">
          <mxGeometry x="17.5" y="50" width="200" height="90" as="geometry">
            <mxRectangle x="17.5" y="50" width="100" height="30" as="alternateBounds" />
          </mxGeometry>
        </mxCell>
        <mxCell id="H7JjW7gKEQ4J_BTl-3o7-6" value="Connection Bundles per platform" style="text;strokeColor=none;fillColor=none;align=center;verticalAlign=middle;spacingLeft=4;spacingRight=4;overflow=hidden;points=[[0,0.5],[1,0.5]];portConstraint=eastwest;rotatable=1;whiteSpace=wrap;html=1;movable=1;resizable=1;deletable=1;editable=1;locked=0;connectable=1;" vertex="1" parent="H7JjW7gKEQ4J_BTl-3o7-5">
          <mxGeometry y="30" width="200" height="30" as="geometry" />
        </mxCell>
        <mxCell id="H7JjW7gKEQ4J_BTl-3o7-7" value="Setting Values for Connection" style="text;strokeColor=none;fillColor=none;align=center;verticalAlign=middle;spacingLeft=4;spacingRight=4;overflow=hidden;points=[[0,0.5],[1,0.5]];portConstraint=eastwest;rotatable=1;whiteSpace=wrap;html=1;movable=1;resizable=1;deletable=1;editable=1;locked=0;connectable=1;" vertex="1" parent="H7JjW7gKEQ4J_BTl-3o7-5">
          <mxGeometry y="60" width="200" height="30" as="geometry" />
        </mxCell>
        <mxCell id="H7JjW7gKEQ4J_BTl-3o7-9" value="&lt;b&gt;Resource&lt;/b&gt;" style="swimlane;fontStyle=0;childLayout=stackLayout;horizontal=1;startSize=30;horizontalStack=0;resizeParent=1;resizeParentMax=0;resizeLast=0;collapsible=1;marginBottom=0;whiteSpace=wrap;html=1;movable=1;resizable=1;rotatable=1;deletable=1;editable=1;locked=0;connectable=1;" vertex="1" parent="H7JjW7gKEQ4J_BTl-3o7-28">
          <mxGeometry x="17.5" y="170" width="200" height="90" as="geometry">
            <mxRectangle x="17.5" y="170" width="100" height="30" as="alternateBounds" />
          </mxGeometry>
        </mxCell>
        <mxCell id="H7JjW7gKEQ4J_BTl-3o7-10" value="Mapping Set for provisioning" style="text;strokeColor=none;fillColor=none;align=center;verticalAlign=middle;spacingLeft=4;spacingRight=4;overflow=hidden;points=[[0,0.5],[1,0.5]];portConstraint=eastwest;rotatable=1;whiteSpace=wrap;html=1;movable=1;resizable=1;deletable=1;editable=1;locked=0;connectable=1;" vertex="1" parent="H7JjW7gKEQ4J_BTl-3o7-9">
          <mxGeometry y="30" width="200" height="30" as="geometry" />
        </mxCell>
        <mxCell id="H7JjW7gKEQ4J_BTl-3o7-11" value="Define Connector Capability" style="text;strokeColor=none;fillColor=none;align=center;verticalAlign=middle;spacingLeft=4;spacingRight=4;overflow=hidden;points=[[0,0.5],[1,0.5]];portConstraint=eastwest;rotatable=1;whiteSpace=wrap;html=1;movable=1;resizable=1;deletable=1;editable=1;locked=0;connectable=1;" vertex="1" parent="H7JjW7gKEQ4J_BTl-3o7-9">
          <mxGeometry y="60" width="200" height="30" as="geometry" />
        </mxCell>
        <mxCell id="H7JjW7gKEQ4J_BTl-3o7-20" value="" style="endArrow=none;html=1;rounded=0;exitX=0.5;exitY=0;exitDx=0;exitDy=0;entryX=0.5;entryY=1;entryDx=0;entryDy=0;entryPerimeter=0;movable=1;resizable=1;rotatable=1;deletable=1;editable=1;locked=0;connectable=1;" edge="1" parent="H7JjW7gKEQ4J_BTl-3o7-28" source="H7JjW7gKEQ4J_BTl-3o7-9" target="H7JjW7gKEQ4J_BTl-3o7-7">
          <mxGeometry width="50" height="50" relative="1" as="geometry">
            <mxPoint x="347.5" y="190" as="sourcePoint" />
            <mxPoint x="117.5" y="160" as="targetPoint" />
          </mxGeometry>
        </mxCell>
        <mxCell id="H7JjW7gKEQ4J_BTl-3o7-22" value="&lt;b&gt;Connectors&lt;/b&gt;" style="rounded=1;whiteSpace=wrap;html=1;fillColor=#d5e8d4;strokeColor=#82b366;movable=1;resizable=1;rotatable=1;deletable=1;editable=1;locked=0;connectable=1;" vertex="1" parent="H7JjW7gKEQ4J_BTl-3o7-28">
          <mxGeometry x="47.5" width="140" height="30" as="geometry" />
        </mxCell>
        <mxCell id="H7JjW7gKEQ4J_BTl-3o7-29" value="Access with connector values" style="text;html=1;strokeColor=none;fillColor=none;align=center;verticalAlign=middle;whiteSpace=wrap;rounded=0;" vertex="1" parent="1">
          <mxGeometry x="-40" y="210" width="180" height="30" as="geometry" />
        </mxCell>
        <mxCell id="H7JjW7gKEQ4J_BTl-3o7-33" value="" style="endArrow=classic;html=1;rounded=0;exitX=1.007;exitY=0.168;exitDx=0;exitDy=0;exitPerimeter=0;entryX=-0.033;entryY=0.118;entryDx=0;entryDy=0;entryPerimeter=0;" edge="1" parent="1" source="H7JjW7gKEQ4J_BTl-3o7-9" target="H7JjW7gKEQ4J_BTl-3o7-23">
          <mxGeometry width="50" height="50" relative="1" as="geometry">
            <mxPoint x="460" y="310" as="sourcePoint" />
            <mxPoint x="470" y="364" as="targetPoint" />
          </mxGeometry>
        </mxCell>
        <mxCell id="H7JjW7gKEQ4J_BTl-3o7-34" value="Apply mapping set&lt;br&gt;/ Adjust response" style="text;html=1;strokeColor=none;fillColor=none;align=center;verticalAlign=middle;whiteSpace=wrap;rounded=0;" vertex="1" parent="1">
          <mxGeometry x="390" y="329.62" width="110" height="30" as="geometry" />
        </mxCell>
        <mxCell id="H7JjW7gKEQ4J_BTl-3o7-35" value="" style="endArrow=classic;html=1;rounded=0;exitX=0.986;exitY=0.646;exitDx=0;exitDy=0;exitPerimeter=0;entryX=0;entryY=0.5;entryDx=0;entryDy=0;" edge="1" parent="1" source="H7JjW7gKEQ4J_BTl-3o7-15" target="H7JjW7gKEQ4J_BTl-3o7-85">
          <mxGeometry width="50" height="50" relative="1" as="geometry">
            <mxPoint x="-90" y="69" as="sourcePoint" />
            <mxPoint x="-180" y="68" as="targetPoint" />
          </mxGeometry>
        </mxCell>
        <mxCell id="H7JjW7gKEQ4J_BTl-3o7-36" value="Request CRUD task via Syncope API / Console" style="text;html=1;strokeColor=none;fillColor=none;align=center;verticalAlign=middle;whiteSpace=wrap;rounded=0;" vertex="1" parent="1">
          <mxGeometry x="-210" y="18" width="320" height="30" as="geometry" />
        </mxCell>
        <mxCell id="H7JjW7gKEQ4J_BTl-3o7-39" value="Init requested task" style="text;html=1;strokeColor=none;fillColor=none;align=center;verticalAlign=middle;whiteSpace=wrap;rounded=0;" vertex="1" parent="1">
          <mxGeometry x="232.5" y="110" width="110" height="30" as="geometry" />
        </mxCell>
        <mxCell id="H7JjW7gKEQ4J_BTl-3o7-41" value="&lt;b&gt;SchemaObject&lt;/b&gt;" style="swimlane;fontStyle=0;childLayout=stackLayout;horizontal=1;startSize=30;horizontalStack=0;resizeParent=1;resizeParentMax=0;resizeLast=0;collapsible=1;marginBottom=0;whiteSpace=wrap;html=1;fillColor=#dae8fc;strokeColor=#6c8ebf;" vertex="1" parent="1">
          <mxGeometry x="-10" y="350" width="140" height="120" as="geometry">
            <mxRectangle x="680" y="190" width="140" height="30" as="alternateBounds" />
          </mxGeometry>
        </mxCell>
        <mxCell id="H7JjW7gKEQ4J_BTl-3o7-42" value="USER" style="text;strokeColor=none;fillColor=none;align=center;verticalAlign=middle;spacingLeft=4;spacingRight=4;overflow=hidden;points=[[0,0.5],[1,0.5]];portConstraint=eastwest;rotatable=0;whiteSpace=wrap;html=1;" vertex="1" parent="H7JjW7gKEQ4J_BTl-3o7-41">
          <mxGeometry y="30" width="140" height="30" as="geometry" />
        </mxCell>
        <mxCell id="H7JjW7gKEQ4J_BTl-3o7-43" value="GROUP" style="text;strokeColor=none;fillColor=none;align=center;verticalAlign=middle;spacingLeft=4;spacingRight=4;overflow=hidden;points=[[0,0.5],[1,0.5]];portConstraint=eastwest;rotatable=0;whiteSpace=wrap;html=1;" vertex="1" parent="H7JjW7gKEQ4J_BTl-3o7-41">
          <mxGeometry y="60" width="140" height="30" as="geometry" />
        </mxCell>
        <mxCell id="H7JjW7gKEQ4J_BTl-3o7-44" value="DEVICE" style="text;strokeColor=none;fillColor=none;align=center;verticalAlign=middle;spacingLeft=4;spacingRight=4;overflow=hidden;points=[[0,0.5],[1,0.5]];portConstraint=eastwest;rotatable=0;whiteSpace=wrap;html=1;" vertex="1" parent="H7JjW7gKEQ4J_BTl-3o7-41">
          <mxGeometry y="90" width="140" height="30" as="geometry" />
        </mxCell>
        <mxCell id="H7JjW7gKEQ4J_BTl-3o7-45" value="" style="group" vertex="1" connectable="0" parent="1">
          <mxGeometry x="-350" y="10" width="80" height="110" as="geometry" />
        </mxCell>
        <mxCell id="H7JjW7gKEQ4J_BTl-3o7-15" value="" style="shape=actor;whiteSpace=wrap;html=1;" vertex="1" parent="H7JjW7gKEQ4J_BTl-3o7-45">
          <mxGeometry x="5" width="70" height="90" as="geometry" />
        </mxCell>
        <mxCell id="H7JjW7gKEQ4J_BTl-3o7-38" value="Client" style="rounded=1;whiteSpace=wrap;html=1;" vertex="1" parent="H7JjW7gKEQ4J_BTl-3o7-45">
          <mxGeometry y="90" width="80" height="20" as="geometry" />
        </mxCell>
        <mxCell id="H7JjW7gKEQ4J_BTl-3o7-48" value="&lt;b&gt;Platforms&lt;br&gt;(Target System)&lt;br&gt;&lt;/b&gt;" style="rounded=1;whiteSpace=wrap;html=1;fillColor=#dae8fc;strokeColor=#6c8ebf;movable=1;resizable=1;rotatable=1;deletable=1;editable=1;locked=0;connectable=1;" vertex="1" parent="1">
          <mxGeometry x="-260" y="179" width="140" height="30" as="geometry" />
        </mxCell>
        <mxCell id="H7JjW7gKEQ4J_BTl-3o7-72" value="" style="edgeStyle=orthogonalEdgeStyle;rounded=0;orthogonalLoop=1;jettySize=auto;html=1;" edge="1" parent="1" source="H7JjW7gKEQ4J_BTl-3o7-51" target="H7JjW7gKEQ4J_BTl-3o7-71">
          <mxGeometry relative="1" as="geometry">
            <Array as="points">
              <mxPoint x="-280" y="440" />
              <mxPoint x="-30" y="440" />
              <mxPoint x="-30" y="370" />
            </Array>
          </mxGeometry>
        </mxCell>
        <mxCell id="H7JjW7gKEQ4J_BTl-3o7-51" value="&lt;b&gt;STORED IDENTITY&lt;/b&gt;" style="shape=datastore;whiteSpace=wrap;html=1;fillColor=#dae8fc;strokeColor=#6c8ebf;" vertex="1" parent="1">
          <mxGeometry x="-330" y="230.37" width="100" height="129.25" as="geometry" />
        </mxCell>
        <mxCell id="H7JjW7gKEQ4J_BTl-3o7-53" value="&lt;b&gt;Authentication&lt;/b&gt;" style="swimlane;fontStyle=0;childLayout=stackLayout;horizontal=1;startSize=30;horizontalStack=0;resizeParent=1;resizeParentMax=0;resizeLast=0;collapsible=1;marginBottom=0;whiteSpace=wrap;html=1;" vertex="1" parent="1">
          <mxGeometry x="-210" y="230" width="140" height="120" as="geometry">
            <mxRectangle x="680" y="190" width="140" height="30" as="alternateBounds" />
          </mxGeometry>
        </mxCell>
        <mxCell id="H7JjW7gKEQ4J_BTl-3o7-54" value="Username / Password" style="text;strokeColor=none;fillColor=none;align=center;verticalAlign=middle;spacingLeft=4;spacingRight=4;overflow=hidden;points=[[0,0.5],[1,0.5]];portConstraint=eastwest;rotatable=0;whiteSpace=wrap;html=1;" vertex="1" parent="H7JjW7gKEQ4J_BTl-3o7-53">
          <mxGeometry y="30" width="140" height="30" as="geometry" />
        </mxCell>
        <mxCell id="H7JjW7gKEQ4J_BTl-3o7-55" value="Token" style="text;strokeColor=none;fillColor=none;align=center;verticalAlign=middle;spacingLeft=4;spacingRight=4;overflow=hidden;points=[[0,0.5],[1,0.5]];portConstraint=eastwest;rotatable=0;whiteSpace=wrap;html=1;" vertex="1" parent="H7JjW7gKEQ4J_BTl-3o7-53">
          <mxGeometry y="60" width="140" height="30" as="geometry" />
        </mxCell>
        <mxCell id="H7JjW7gKEQ4J_BTl-3o7-56" value="External IDP" style="text;strokeColor=none;fillColor=none;align=center;verticalAlign=middle;spacingLeft=4;spacingRight=4;overflow=hidden;points=[[0,0.5],[1,0.5]];portConstraint=eastwest;rotatable=0;whiteSpace=wrap;html=1;" vertex="1" parent="H7JjW7gKEQ4J_BTl-3o7-53">
          <mxGeometry y="90" width="140" height="30" as="geometry" />
        </mxCell>
        <mxCell id="H7JjW7gKEQ4J_BTl-3o7-57" value="" style="endArrow=classic;html=1;rounded=0;entryX=1.011;entryY=0.112;entryDx=0;entryDy=0;entryPerimeter=0;exitX=0;exitY=0.152;exitDx=0;exitDy=0;exitPerimeter=0;" edge="1" parent="1" source="H7JjW7gKEQ4J_BTl-3o7-5" target="H7JjW7gKEQ4J_BTl-3o7-53">
          <mxGeometry width="50" height="50" relative="1" as="geometry">
            <mxPoint x="-40" y="300" as="sourcePoint" />
            <mxPoint x="10" y="250" as="targetPoint" />
          </mxGeometry>
        </mxCell>
        <mxCell id="H7JjW7gKEQ4J_BTl-3o7-70" value="" style="endArrow=classic;startArrow=classic;html=1;rounded=0;entryX=0.5;entryY=1;entryDx=0;entryDy=0;exitX=0.5;exitY=0;exitDx=0;exitDy=0;" edge="1" parent="1" source="H7JjW7gKEQ4J_BTl-3o7-23" target="H7JjW7gKEQ4J_BTl-3o7-14">
          <mxGeometry width="50" height="50" relative="1" as="geometry">
            <mxPoint x="540" y="259" as="sourcePoint" />
            <mxPoint x="590" y="209" as="targetPoint" />
          </mxGeometry>
        </mxCell>
        <mxCell id="H7JjW7gKEQ4J_BTl-3o7-71" value="" style="shape=waypoint;sketch=0;size=6;pointerEvents=1;points=[];fillColor=#dae8fc;resizable=0;rotatable=0;perimeter=centerPerimeter;snapToPoint=1;strokeColor=#6c8ebf;" vertex="1" parent="1">
          <mxGeometry x="-20" y="359.615" width="20" height="20" as="geometry" />
        </mxCell>
        <mxCell id="H7JjW7gKEQ4J_BTl-3o7-73" value="Retrive authorized response" style="text;html=1;strokeColor=none;fillColor=none;align=center;verticalAlign=middle;whiteSpace=wrap;rounded=0;" vertex="1" parent="1">
          <mxGeometry x="-240" y="410" width="180" height="30" as="geometry" />
        </mxCell>
        <mxCell id="H7JjW7gKEQ4J_BTl-3o7-74" value="" style="endArrow=classic;html=1;rounded=0;exitX=1.006;exitY=0.146;exitDx=0;exitDy=0;exitPerimeter=0;entryX=0;entryY=0.198;entryDx=0;entryDy=0;entryPerimeter=0;" edge="1" parent="1" source="H7JjW7gKEQ4J_BTl-3o7-41" target="H7JjW7gKEQ4J_BTl-3o7-9">
          <mxGeometry width="50" height="50" relative="1" as="geometry">
            <mxPoint x="130" y="300" as="sourcePoint" />
            <mxPoint x="180" y="250" as="targetPoint" />
          </mxGeometry>
        </mxCell>
        <mxCell id="H7JjW7gKEQ4J_BTl-3o7-75" value="" style="endArrow=classic;html=1;rounded=0;exitX=0.504;exitY=1.125;exitDx=0;exitDy=0;exitPerimeter=0;entryX=0.5;entryY=1.125;entryDx=0;entryDy=0;entryPerimeter=0;fillColor=#f8cecc;strokeColor=#b85450;" edge="1" parent="1" source="H7JjW7gKEQ4J_BTl-3o7-44" target="H7JjW7gKEQ4J_BTl-3o7-26">
          <mxGeometry relative="1" as="geometry">
            <mxPoint x="40" y="530" as="sourcePoint" />
            <mxPoint x="580" y="530" as="targetPoint" />
            <Array as="points">
              <mxPoint x="60" y="530" />
              <mxPoint x="580" y="530" />
            </Array>
          </mxGeometry>
        </mxCell>
        <mxCell id="H7JjW7gKEQ4J_BTl-3o7-76" value="PROVISIONED" style="edgeLabel;resizable=0;html=1;align=center;verticalAlign=middle;" connectable="0" vertex="1" parent="H7JjW7gKEQ4J_BTl-3o7-75">
          <mxGeometry relative="1" as="geometry" />
        </mxCell>
        <mxCell id="H7JjW7gKEQ4J_BTl-3o7-77" value="" style="endArrow=classic;html=1;rounded=0;exitX=1;exitY=0.75;exitDx=0;exitDy=0;entryX=0.001;entryY=0.532;entryDx=0;entryDy=0;entryPerimeter=0;fillColor=#f8cecc;strokeColor=#b85450;" edge="1" parent="1" source="H7JjW7gKEQ4J_BTl-3o7-68" target="H7JjW7gKEQ4J_BTl-3o7-21">
          <mxGeometry relative="1" as="geometry">
            <mxPoint x="-20" y="330" as="sourcePoint" />
            <mxPoint x="150" y="334" as="targetPoint" />
          </mxGeometry>
        </mxCell>
        <mxCell id="H7JjW7gKEQ4J_BTl-3o7-78" value="PULL" style="edgeLabel;resizable=0;html=1;align=center;verticalAlign=middle;" connectable="0" vertex="1" parent="H7JjW7gKEQ4J_BTl-3o7-77">
          <mxGeometry relative="1" as="geometry" />
        </mxCell>
        <mxCell id="H7JjW7gKEQ4J_BTl-3o7-79" value="" style="endArrow=classic;html=1;rounded=0;exitX=-0.013;exitY=0.417;exitDx=0;exitDy=0;exitPerimeter=0;entryX=1.002;entryY=0.586;entryDx=0;entryDy=0;entryPerimeter=0;fillColor=#f8cecc;strokeColor=#b85450;" edge="1" parent="1" source="H7JjW7gKEQ4J_BTl-3o7-21" target="H7JjW7gKEQ4J_BTl-3o7-68">
          <mxGeometry relative="1" as="geometry">
            <mxPoint x="10" y="280" as="sourcePoint" />
            <mxPoint x="110" y="280" as="targetPoint" />
          </mxGeometry>
        </mxCell>
        <mxCell id="H7JjW7gKEQ4J_BTl-3o7-80" value="PUSH / PROPAGATION" style="edgeLabel;resizable=0;html=1;align=center;verticalAlign=middle;" connectable="0" vertex="1" parent="H7JjW7gKEQ4J_BTl-3o7-79">
          <mxGeometry relative="1" as="geometry" />
        </mxCell>
        <mxCell id="H7JjW7gKEQ4J_BTl-3o7-81" value="Legend" style="swimlane;whiteSpace=wrap;html=1;fillColor=#f5f5f5;fontColor=#333333;strokeColor=#666666;" vertex="1" parent="1">
          <mxGeometry x="-350" y="470" width="300" height="60" as="geometry" />
        </mxCell>
        <mxCell id="H7JjW7gKEQ4J_BTl-3o7-82" value="External Attr." style="rounded=1;whiteSpace=wrap;html=1;fillColor=#dae8fc;strokeColor=#6c8ebf;" vertex="1" parent="H7JjW7gKEQ4J_BTl-3o7-81">
          <mxGeometry x="8" y="30" width="90" height="20" as="geometry" />
        </mxCell>
        <mxCell id="H7JjW7gKEQ4J_BTl-3o7-84" value="Task" style="rounded=1;whiteSpace=wrap;html=1;fillColor=#f8cecc;strokeColor=#b85450;" vertex="1" parent="H7JjW7gKEQ4J_BTl-3o7-81">
          <mxGeometry x="202" y="30" width="90" height="20" as="geometry" />
        </mxCell>
        <mxCell id="H7JjW7gKEQ4J_BTl-3o7-83" value="Internal Attr." style="rounded=1;whiteSpace=wrap;html=1;fillColor=#d5e8d4;strokeColor=#82b366;" vertex="1" parent="1">
          <mxGeometry x="-245" y="500" width="90" height="20" as="geometry" />
        </mxCell>
        <mxCell id="H7JjW7gKEQ4J_BTl-3o7-89" value="" style="edgeStyle=orthogonalEdgeStyle;rounded=0;orthogonalLoop=1;jettySize=auto;html=1;" edge="1" parent="1" source="H7JjW7gKEQ4J_BTl-3o7-85" target="H7JjW7gKEQ4J_BTl-3o7-88">
          <mxGeometry relative="1" as="geometry" />
        </mxCell>
        <mxCell id="H7JjW7gKEQ4J_BTl-3o7-85" value="Access Management" style="rounded=1;whiteSpace=wrap;html=1;" vertex="1" parent="1">
          <mxGeometry x="-215" y="52" width="130" height="32" as="geometry" />
        </mxCell>
        <mxCell id="H7JjW7gKEQ4J_BTl-3o7-90" value="" style="edgeStyle=orthogonalEdgeStyle;rounded=0;orthogonalLoop=1;jettySize=auto;html=1;" edge="1" parent="1" source="H7JjW7gKEQ4J_BTl-3o7-88" target="H7JjW7gKEQ4J_BTl-3o7-17">
          <mxGeometry relative="1" as="geometry" />
        </mxCell>
        <mxCell id="H7JjW7gKEQ4J_BTl-3o7-88" value="Interface" style="rounded=1;whiteSpace=wrap;html=1;" vertex="1" parent="1">
          <mxGeometry x="-5" y="52" width="130" height="32" as="geometry" />
        </mxCell>
      </root>
    </mxGraphModel>
  </diagram>
</mxfile>
